<svg xmlns="http://www.w3.org/2000/svg" width="201" height="19" viewBox="0 0 201 19" fill="none"><path d="M191.922 8.33646C192.645 3.59254 195.212 0.847045 196.426 0.0425424C197.639 0.847045 200.175 3.59254 200.898 8.33646C201.63 13.1386 198.235 15.8358 196.428 16.6012C194.621 15.8358 191.189 13.1386 191.922 8.33646Z" fill="#326238"></path><path d="M196.229 0.271428C196.229 0.196475 196.287 0.135714 196.36 0.135714H196.492C196.564 0.135714 196.623 0.196476 196.623 0.271429V19H196.229V0.271428Z" fill="#326238"></path><path d="M6.7057 14.0209V8.86208H21.0055C21.5786 8.86208 22.0562 8.77364 22.4383 8.59677C22.8395 8.40024 23.0401 7.99737 23.0401 7.38814C23.0401 6.75926 22.8395 6.35638 22.4383 6.17951C22.0562 6.00263 21.5786 5.9142 21.0055 5.9142H7.16421V18.8849H0V0.0184402H19.8879C21.3207 0.0184402 22.658 0.126529 23.8998 0.342708C25.1607 0.539233 26.2592 0.902805 27.1953 1.43342C28.1315 1.96404 28.867 2.71084 29.4019 3.67381C29.9369 4.63678 30.2043 5.87489 30.2043 7.38814C30.2043 8.90138 29.9369 10.1002 29.4019 10.9846C28.867 11.8689 28.1315 12.5273 27.1953 12.9596C26.2592 13.392 25.1607 13.6769 23.8998 13.8145C22.658 13.9521 21.3207 14.0209 19.8879 14.0209H6.7057Z" fill="#DC9F96"></path><path d="M40.9437 0.0184402V13.2839H57.6506V18.8849H33.7795V0.0184402H40.9437Z" fill="#DC9F96"></path><path d="M65.5129 16.0254V11.6036H85.1142V16.0254H65.5129ZM59.0938 18.8849L71.3876 0.0184402H79.3542L91.7626 18.8849H83.8819L73.2503 1.99352H77.5201L66.9744 18.8849H59.0938Z" fill="#DC9F96"></path><path d="M122.802 13.107L120.137 14.6694V0.0184402H127.302V18.8849H120.137L98.5587 6.03211L101.224 4.44026V18.8849H94.0596V0.0184402H101.224L122.802 13.107Z" fill="#DC9F96"></path><path d="M130.162 0.0184402H159.965V5.61941H130.162V0.0184402ZM141.481 5.23619H148.645V18.8849H141.481V5.23619Z" fill="#DC9F96"></path><path d="M191.613 0.0184402L180.007 14.0798V18.8849H172.842V14.0798L161.236 0.0184402H169.69L179.118 12.2521H173.817L183.159 0.0184402H191.613Z" fill="#DC9F96"></path></svg>